<?xml version="1.0" encoding="utf-8"?>
<!-- Generator: Adobe Illustrator 15.1.0, SVG Export Plug-In  -->
<!DOCTYPE svg PUBLIC "-//W3C//DTD SVG 1.1//EN" "http://www.w3.org/Graphics/SVG/1.1/DTD/svg11.dtd" [
	<!ENTITY ns_flows "http://ns.adobe.com/Flows/1.0/">
]>
<svg version="1.1"
	 xmlns="http://www.w3.org/2000/svg" xmlns:xlink="http://www.w3.org/1999/xlink" xmlns:a="http://ns.adobe.com/AdobeSVGViewerExtensions/3.0/"
	 x="0px" y="0px" width="900px" height="326px" viewBox="0 0 900 326" overflow="visible" enable-background="new 0 0 900 326"
	 xml:space="preserve">
<defs>
</defs>
<path fill="#000000" d="M417.734,3.822v162.54c0,34.266-19.373,70.483-77.792,70.483c-52.696,0-78.109-27.318-78.109-70.483V3.822
	h47.954v159.378c0,28.246,12.078,39.38,29.543,39.38c20.933,0,30.486-13.991,30.486-39.38V3.822H417.734z"/>
<path fill="#000000" d="M495.686,236.845c-59.365,0-70.46-34.936-67.939-74.599h47.958c0,21.882,0.955,40.334,27.298,40.334
	c16.185,0,24.148-10.501,24.148-26.046c0-41.267-96.534-43.811-96.534-112.079C430.618,28.577,447.75,0,506.166,0
	c46.659,0,69.855,20.966,66.665,68.91H526.19c0-17.16-2.871-34.626-22.246-34.626c-15.538,0-24.763,8.577-24.763,24.46
	c0,43.479,96.521,39.666,96.521,111.752C575.702,229.865,532.211,236.845,495.686,236.845z"/>
<path fill="#000000" d="M818.033,236.845c-59.393,0-70.527-34.936-68.006-74.599h47.959c0,21.882,0.955,40.334,27.298,40.334
	c16.214,0,24.137-10.501,24.137-26.046c0-41.267-96.516-43.811-96.516-112.079C752.905,28.577,770.074,0,828.478,0
	c46.659,0,69.825,20.966,66.678,68.91H848.48c0-17.16-2.864-34.626-22.228-34.626c-15.545,0-24.763,8.577-24.763,24.46
	c0,43.479,96.543,39.666,96.543,111.752C898.033,229.865,854.506,236.845,818.033,236.845z"/>
<path fill="#000000" d="M665.27,147.606h28.232v50.615l-2.33,0.854c-7.331,2.521-15.9,4.431-23.852,4.431
	c-27.284,0-34.279-12.694-34.279-84.445c0-44.446,0-84.777,29.849-84.777c23.21,0,28.146,15.683,28.565,34.626h47.73
	C739.571,24.42,710.933,0,665.768,0C587.32,0,584.47,58.744,584.47,116.507c0,86.999,9.419,120.737,90.075,120.737
	c18.692,0,48.484-4.203,62.254-7.944c0.79-0.249,2.272-1.117,2.272-2.336c0-6.247,0-113.952,0-113.952H665.27V147.606z"/>
<path fill="#000000" d="M61.778,80.567l0.787,0.77c22.473,18.804,46.712,16.986,65.177,4.716
	c11.655-7.761,64.282-42.737,94.051-62.541V3.762H0v52.182C13.528,53.589,35.299,55.879,61.778,80.567z"/>
<path fill="#000000" d="M145.223,167.417l-26.197-25.146c-3.694-3.334-6.825-5.778-7.527-6.327
	c-21.404-15.038-41.372-10.458-49.966-7.258c-2.607,1.046-5.094,2.471-6.86,3.567L0,168.856v66.23h221.792v-47.68
	C216.928,190.499,186.894,206.77,145.223,167.417z"/>
<path fill="#000000" d="M59.818,86.507c-1.175-1.103-2.503-2.293-3.675-3.236C29.96,62.997,5.214,72.927,0,75.396v22.785
	l12.827-8.626c0,0,19.776-14.67,50.562,0.384L59.818,86.507z"/>
<path fill="#000000" d="M90.444,115.961c-1.153-1.032-2.308-2.067-3.483-3.177c-23.224-19.663-45.714-14.69-55.007-11.21
	c-2.639,1.051-5.162,2.487-6.945,3.579l-2.521,1.717l0,0L0,121.911v23.479l41.846-28.168c0,0,19.53-14.508,50.017,0.089
	L90.444,115.961z"/>
<path fill="#000000" d="M221.824,140.56c-8.729,5.87-17.589,11.854-21.122,14.234c-7.875,5.258-26.146,18.352-56.53,3.833
	l3.572,3.433c1.329,1.213,2.958,2.608,4.76,3.963c21.805,16.342,45.136,13.989,62.604,2.377c2.432-1.594,4.654-3.062,6.717-4.444
	V140.56z"/>
<path fill="#000000" d="M221.824,93.49c-19.144,12.884-44.994,30.281-49.877,33.542c-7.875,5.278-26.407,18.53-56.142,4.331
	l3.447,3.314c0.385,0.37,0.787,0.727,1.172,1.083l-0.036,0.027l0,0l0.036-0.027c23.085,19.533,48.513,16.557,65.964,4.888
	c9.833-6.541,23.817-15.988,35.436-23.897V93.49z"/>
<path fill="#000000" d="M221.824,46.711c-27.615,18.514-72.927,48.897-78.439,52.538c-7.96,5.329-26.708,18.813-56.072,4.794
	l3.57,3.447c2.12,1.894,4.969,4.308,8.015,6.286c20.32,13.007,41.602,10.691,58.91-0.877c12.427-8.321,43.053-28.632,64.017-42.562
	V46.711z"/>
<path fill="#000000" d="M12.982,299.145v1.442c0,1.801,0.333,3.07,0.999,3.81c0.69,0.74,1.799,1.11,3.329,1.11
	c1.258,0,2.231-0.309,2.922-0.925c0.715-0.616,1.073-1.615,1.073-2.996c0-1.134-0.419-2.206-1.257-3.218
	c-0.839-1.011-3.058-2.306-6.658-3.884l-1.923-0.813c-2.762-1.208-4.969-2.7-6.621-4.476c-1.652-1.775-2.478-3.797-2.478-6.066
	c0-3.551,1.344-6.274,4.032-8.174c2.712-1.924,6.497-2.885,11.355-2.885c4.019,0,7.25,0.986,9.691,2.959
	c2.441,1.948,3.662,4.438,3.662,7.471v1.406H20.491c0-2.516-0.296-4.118-0.888-4.809c-0.592-0.715-1.504-1.072-2.737-1.072
	c-1.356,0-2.343,0.346-2.959,1.035c-0.617,0.69-0.925,1.727-0.925,3.107c0,0.912,0.468,1.775,1.406,2.589
	c0.937,0.789,2.613,1.751,5.03,2.885l2.589,1.146c3.748,1.701,6.337,3.465,7.768,5.289c1.43,1.825,2.145,3.909,2.145,6.251
	c0,3.625-1.356,6.51-4.068,8.655c-2.713,2.121-6.165,3.181-10.356,3.181c-5.376,0-9.247-0.925-11.614-2.773
	c-2.343-1.874-3.514-4.722-3.514-8.545v-1.701H12.982z"/>
<path fill="#000000" d="M57.22,297.37h10.615c0,4.907-1.271,8.606-3.81,11.097c-2.54,2.466-6.375,3.698-11.503,3.698
	c-5.598,0-9.592-1.454-11.984-4.364c-2.392-2.909-3.587-7.435-3.587-13.574v-2.589c0-7.743,1.27-12.934,3.81-15.572
	c2.539-2.663,6.436-3.994,11.688-3.994c5.35,0,9.222,1.257,11.614,3.772c2.417,2.515,3.625,5.992,3.625,10.431H57.072
	c0-2.959-0.383-4.957-1.147-5.992c-0.765-1.036-1.911-1.554-3.439-1.554c-2.047,0-3.379,0.925-3.995,2.774
	c-0.617,1.85-0.925,5.141-0.925,9.875c0,5.895,0.333,9.729,0.999,11.504c0.666,1.751,1.973,2.626,3.921,2.626
	C55.641,305.507,57.22,302.794,57.22,297.37z"/>
<path fill="#000000" d="M76.638,256.757h10.616v8.434H76.638V256.757z M76.638,272.884h10.616v38.467H76.638V272.884z"/>
<path fill="#000000" d="M106.486,293.893c0,3.945,0.357,6.867,1.073,8.766c0.74,1.899,2.095,2.849,4.068,2.849
	c3.082,0,4.624-2.317,4.624-6.954h10.615c0,3.921-1.307,7.176-3.92,9.765c-2.589,2.565-6.362,3.847-11.318,3.847
	c-5.548,0-9.567-1.417-12.058-4.253c-2.466-2.86-3.699-7.348-3.699-13.464v-2.811c0-7.743,1.282-12.934,3.847-15.572
	c2.564-2.663,6.51-3.994,11.836-3.994c5.252,0,9.173,1.381,11.762,4.143c2.589,2.736,3.884,7.299,3.884,13.685v2.331
	c0,0.912,0,1.467,0,1.664H106.486z M106.486,287.938h10.098c0-3.97-0.432-6.497-1.295-7.582c-0.863-1.085-2.096-1.628-3.699-1.628
	c-1.899,0-3.23,0.703-3.995,2.108C106.856,282.218,106.486,284.585,106.486,287.938z"/>
<path fill="#000000" d="M134.708,311.351v-38.467h10.615v3.921c1.973-3.156,5.08-4.734,9.321-4.734c2.712,0,4.994,0.776,6.843,2.33
	c1.85,1.529,2.774,3.612,2.774,6.251v30.699h-10.615v-26.52c0-4.069-1.394-6.104-4.18-6.104c-2.762,0-4.143,1.948-4.143,5.844
	v26.779H134.708z"/>
<path fill="#000000" d="M191.89,297.37h10.615c0,4.907-1.271,8.606-3.81,11.097c-2.54,2.466-6.375,3.698-11.503,3.698
	c-5.598,0-9.592-1.454-11.984-4.364c-2.392-2.909-3.587-7.435-3.587-13.574v-2.589c0-7.743,1.27-12.934,3.81-15.572
	c2.539-2.663,6.436-3.994,11.688-3.994c5.35,0,9.222,1.257,11.614,3.772c2.417,2.515,3.625,5.992,3.625,10.431h-10.615
	c0-2.959-0.383-4.957-1.147-5.992c-0.765-1.036-1.911-1.554-3.439-1.554c-2.047,0-3.379,0.925-3.995,2.774
	c-0.617,1.85-0.925,5.141-0.925,9.875c0,5.895,0.333,9.729,0.999,11.504c0.666,1.751,1.973,2.626,3.921,2.626
	C190.312,305.507,191.89,302.794,191.89,297.37z"/>
<path fill="#000000" d="M220.111,293.893c0,3.945,0.357,6.867,1.073,8.766c0.74,1.899,2.095,2.849,4.068,2.849
	c3.082,0,4.624-2.317,4.624-6.954h10.615c0,3.921-1.307,7.176-3.92,9.765c-2.589,2.565-6.362,3.847-11.318,3.847
	c-5.548,0-9.567-1.417-12.058-4.253c-2.466-2.86-3.699-7.348-3.699-13.464v-2.811c0-7.743,1.282-12.934,3.847-15.572
	c2.564-2.663,6.51-3.994,11.836-3.994c5.252,0,9.173,1.381,11.762,4.143c2.589,2.736,3.884,7.299,3.884,13.685v2.331
	c0,0.912,0,1.467,0,1.664H220.111z M220.111,287.938h10.098c0-3.97-0.432-6.497-1.295-7.582c-0.863-1.085-2.096-1.628-3.699-1.628
	c-1.899,0-3.23,0.703-3.995,2.108C220.481,282.218,220.111,284.585,220.111,287.938z"/>
<path fill="#000000" d="M260.872,272.884h4.734v-6.621c0-3.427,0.863-5.893,2.589-7.397c1.75-1.528,4.98-2.293,9.69-2.293
	c1.233,0,2.453,0.05,3.662,0.148v6.62c-0.419-0.074-0.801-0.11-1.146-0.11c-1.677,0-2.799,0.419-3.366,1.257
	c-0.543,0.839-0.814,2.146-0.814,3.921v4.476h4.734v6.657h-4.734v31.81h-10.615v-31.81h-4.734V272.884z"/>
<path fill="#000000" d="M285.246,291.637c0-7.743,1.294-12.934,3.883-15.572c2.589-2.663,6.559-3.994,11.91-3.994
	c5.079,0,8.938,1.319,11.577,3.957c2.638,2.614,3.958,7.817,3.958,15.609c0,8.235-1.294,13.722-3.884,16.459
	c-2.589,2.713-6.473,4.068-11.651,4.068c-5.721,0-9.79-1.491-12.206-4.476c-2.392-2.982-3.587-7.582-3.587-13.796V291.637z
	 M295.861,291.377c0,5.82,0.333,9.63,0.999,11.43c0.69,1.8,2.083,2.7,4.18,2.7c1.923,0,3.218-0.925,3.884-2.774
	c0.69-1.85,1.036-5.634,1.036-11.355c0-5.252-0.37-8.667-1.11-10.245c-0.715-1.603-1.985-2.404-3.81-2.404
	c-2.146,0-3.551,0.9-4.217,2.7c-0.642,1.775-0.961,4.291-0.961,7.546V291.377z"/>
<path fill="#000000" d="M324.083,311.351v-38.467h10.615v5.142c1.603-3.97,4.759-5.955,9.469-5.955v9.579
	c-0.518-0.073-0.974-0.11-1.368-0.11c-2.614,0-4.624,0.592-6.029,1.775c-1.381,1.184-2.071,3.428-2.071,6.731v21.305H324.083z"/>
<path fill="#000000" d="M365.804,283.907c0-7.891,4.624-11.836,13.871-11.836c5.424,0,9.357,0.949,11.799,2.848
	c2.441,1.899,3.662,5.191,3.662,9.876v19.825c0,2.367,0.16,4.611,0.481,6.731h-9.95l-0.481-5.326c-2.17,4.094-5.487,6.14-9.949,6.14
	c-6.831,0-10.246-4.08-10.246-12.242c0-4.685,1.245-8.063,3.736-10.135c2.49-2.071,7.015-3.107,13.574-3.107h2.219V283.5
	c0-1.8-0.284-3.156-0.851-4.068c-0.568-0.937-1.641-1.405-3.218-1.405c-1.553,0-2.614,0.48-3.181,1.442
	c-0.568,0.938-0.851,2.417-0.851,4.438H365.804z M384.52,292.635c-3.527,0-5.894,0.444-7.102,1.332
	c-1.208,0.863-1.812,2.602-1.812,5.215c0,4.217,1.332,6.325,3.995,6.325c3.279,0,4.919-2.663,4.919-7.989V292.635z"/>
<path fill="#000000" d="M440.149,297.37h10.615c0,4.907-1.271,8.606-3.81,11.097c-2.54,2.466-6.375,3.698-11.503,3.698
	c-5.598,0-9.592-1.454-11.984-4.364c-2.392-2.909-3.587-7.435-3.587-13.574v-2.589c0-7.743,1.27-12.934,3.81-15.572
	c2.539-2.663,6.436-3.994,11.688-3.994c5.35,0,9.222,1.257,11.614,3.772c2.417,2.515,3.625,5.992,3.625,10.431h-10.615
	c0-2.959-0.383-4.957-1.147-5.992c-0.765-1.036-1.911-1.554-3.439-1.554c-2.047,0-3.379,0.925-3.995,2.774
	c-0.617,1.85-0.925,5.141-0.925,9.875c0,5.895,0.333,9.729,0.999,11.504c0.666,1.751,1.973,2.626,3.921,2.626
	C438.57,305.507,440.149,302.794,440.149,297.37z"/>
<path fill="#000000" d="M458.717,256.906h10.615v19.899c1.972-3.156,5.079-4.734,9.32-4.734c2.712,0,4.993,0.776,6.843,2.33
	c1.85,1.529,2.774,3.612,2.774,6.251v30.699h-10.615v-26.52c0-4.069-1.394-6.104-4.18-6.104c-2.763,0-4.143,1.948-4.143,5.844
	v26.779h-10.615V256.906z"/>
<path fill="#000000" d="M496.259,283.907c0-7.891,4.623-11.836,13.87-11.836c5.424,0,9.357,0.949,11.799,2.848
	c2.441,1.899,3.662,5.191,3.662,9.876v19.825c0,2.367,0.159,4.611,0.48,6.731h-9.949l-0.481-5.326
	c-2.17,4.094-5.486,6.14-9.949,6.14c-6.831,0-10.246-4.08-10.246-12.242c0-4.685,1.245-8.063,3.736-10.135
	c2.49-2.071,7.015-3.107,13.574-3.107h2.219V283.5c0-1.8-0.283-3.156-0.851-4.068c-0.567-0.937-1.64-1.405-3.218-1.405
	c-1.554,0-2.614,0.48-3.181,1.442c-0.567,0.938-0.851,2.417-0.851,4.438H496.259z M514.974,292.635
	c-3.526,0-5.894,0.444-7.102,1.332c-1.208,0.863-1.812,2.602-1.812,5.215c0,4.217,1.331,6.325,3.994,6.325
	c3.279,0,4.919-2.663,4.919-7.989V292.635z"/>
<path fill="#000000" d="M534.467,311.351v-38.467h10.615v3.921c1.972-3.156,5.079-4.734,9.32-4.734c2.712,0,4.993,0.776,6.843,2.33
	c1.85,1.529,2.774,3.612,2.774,6.251v30.699h-10.615v-26.52c0-4.069-1.394-6.104-4.18-6.104c-2.763,0-4.143,1.948-4.143,5.844
	v26.779H534.467z"/>
<path fill="#000000" d="M571.972,314.976h10.615c0,3.525,1.405,5.289,4.217,5.289c2.736,0,4.105-2.256,4.105-6.769v-7.509
	c-1.899,3.157-4.674,4.734-8.322,4.734c-3.945,0-6.806-1.208-8.581-3.625c-1.751-2.44-2.626-6.731-2.626-12.871v-1.479V288.9
	c0-5.942,0.925-10.232,2.773-12.872c1.874-2.638,4.55-3.957,8.026-3.957c4.266,0,7.336,1.775,9.21,5.326v-4.513h10.135v40.427
	c0,8.605-5.043,12.909-15.128,12.909C576.78,326.22,571.972,322.471,571.972,314.976z M581.995,295.188
	c0,3.205,0.345,5.486,1.035,6.842c0.69,1.356,1.874,2.035,3.551,2.035c1.455,0,2.54-0.728,3.255-2.183
	c0.715-1.479,1.073-4.377,1.073-8.692v-2.478c0-5.03-0.395-8.285-1.184-9.765c-0.79-1.479-1.838-2.22-3.145-2.22
	c-1.578,0-2.736,0.839-3.477,2.516c-0.739,1.652-1.109,3.957-1.109,6.916v6.104V295.188z"/>
<path fill="#000000" d="M611.067,256.757h10.615v8.434h-10.615V256.757z M611.067,272.884h10.615v38.467h-10.615V272.884z"/>
<path fill="#000000" d="M631.263,311.351v-38.467h10.615v3.921c1.972-3.156,5.079-4.734,9.32-4.734c2.712,0,4.993,0.776,6.843,2.33
	c1.85,1.529,2.774,3.612,2.774,6.251v30.699H650.2v-26.52c0-4.069-1.394-6.104-4.18-6.104c-2.763,0-4.143,1.948-4.143,5.844v26.779
	H631.263z"/>
<path fill="#000000" d="M668.768,314.976h10.615c0,3.525,1.405,5.289,4.217,5.289c2.736,0,4.105-2.256,4.105-6.769v-7.509
	c-1.899,3.157-4.674,4.734-8.322,4.734c-3.945,0-6.806-1.208-8.581-3.625c-1.751-2.44-2.626-6.731-2.626-12.871v-1.479V288.9
	c0-5.942,0.925-10.232,2.773-12.872c1.874-2.638,4.55-3.957,8.026-3.957c4.266,0,7.336,1.775,9.21,5.326v-4.513h10.135v40.427
	c0,8.605-5.043,12.909-15.128,12.909C673.576,326.22,668.768,322.471,668.768,314.976z M678.791,295.188
	c0,3.205,0.345,5.486,1.035,6.842c0.69,1.356,1.874,2.035,3.551,2.035c1.455,0,2.54-0.728,3.255-2.183
	c0.715-1.479,1.073-4.377,1.073-8.692v-2.478c0-5.03-0.395-8.285-1.184-9.765c-0.79-1.479-1.838-2.22-3.145-2.22
	c-1.578,0-2.736,0.839-3.477,2.516c-0.739,1.652-1.109,3.957-1.109,6.916v6.104V295.188z"/>
<path fill="#000000" d="M720.364,272.884h10.615l5.142,29.146l7.323-29.146h11.097l6.694,29.146l6.104-29.146h10.282l-10.652,38.467
	h-11.281l-6.88-26.446l-7.693,26.446h-11.281L720.364,272.884z"/>
<path fill="#000000" d="M781.801,291.637c0-7.743,1.294-12.934,3.884-15.572c2.589-2.663,6.559-3.994,11.909-3.994
	c5.08,0,8.938,1.319,11.577,3.957c2.639,2.614,3.958,7.817,3.958,15.609c0,8.235-1.295,13.722-3.884,16.459
	c-2.589,2.713-6.473,4.068-11.651,4.068c-5.721,0-9.789-1.491-12.205-4.476c-2.393-2.982-3.588-7.582-3.588-13.796V291.637z
	 M792.416,291.377c0,5.82,0.333,9.63,0.999,11.43c0.689,1.8,2.083,2.7,4.179,2.7c1.924,0,3.219-0.925,3.884-2.774
	c0.69-1.85,1.036-5.634,1.036-11.355c0-5.252-0.37-8.667-1.109-10.245c-0.716-1.603-1.985-2.404-3.811-2.404
	c-2.145,0-3.551,0.9-4.216,2.7c-0.642,1.775-0.962,4.291-0.962,7.546V291.377z"/>
<path fill="#000000" d="M820.638,311.351v-38.467h10.615v5.142c1.603-3.97,4.758-5.955,9.469-5.955v9.579
	c-0.519-0.073-0.975-0.11-1.369-0.11c-2.613,0-4.623,0.592-6.028,1.775c-1.382,1.184-2.071,3.428-2.071,6.731v21.305H820.638z"/>
<path fill="#000000" d="M846.714,311.351v-54.445h10.615v54.445H846.714z"/>
<path fill="#000000" d="M885.624,276.805v-19.899h10.615v54.445h-10.134v-4.513c-1.899,3.551-4.993,5.326-9.284,5.326
	c-3.402,0-6.042-1.281-7.915-3.847c-1.874-2.564-2.812-6.916-2.812-13.057v-3.624v-3.811c0.05-5.153,0.888-9.062,2.516-11.725
	c1.651-2.688,4.401-4.031,8.248-4.031C880.409,272.071,883.331,273.649,885.624,276.805z M876.71,290.638
	c0,5.672,0.271,9.567,0.814,11.688c0.542,2.121,1.775,3.182,3.698,3.182c2.194,0,3.575-1.948,4.143-5.845
	c0.172-1.207,0.259-4.105,0.259-8.691v-3.44c0-3.155-0.369-5.412-1.109-6.769c-0.716-1.355-1.812-2.034-3.292-2.034
	c-1.627,0-2.787,0.74-3.477,2.22c-0.666,1.479-1.012,3.612-1.036,6.398V290.638z"/>
</svg>
