<?xml version="1.0" encoding="UTF-8" standalone="no"?>
<!-- Created with Inkscape (http://www.inkscape.org/) -->

<svg
   xmlns:osb="http://www.openswatchbook.org/uri/2009/osb"
   xmlns:dc="http://purl.org/dc/elements/1.1/"
   xmlns:cc="http://creativecommons.org/ns#"
   xmlns:rdf="http://www.w3.org/1999/02/22-rdf-syntax-ns#"
   xmlns:svg="http://www.w3.org/2000/svg"
   xmlns="http://www.w3.org/2000/svg"
   xmlns:xlink="http://www.w3.org/1999/xlink"
   xmlns:sodipodi="http://sodipodi.sourceforge.net/DTD/sodipodi-0.dtd"
   xmlns:inkscape="http://www.inkscape.org/namespaces/inkscape"
   width="640"
   height="1136"
   viewBox="0 0 640.00001 1136"
   id="svg3421"
   version="1.1"
   inkscape:version="0.91 r13725"
   inkscape:export-filename="D:\iPlover\iplover\iplover-app\www\img\iplover_splash.png"
   inkscape:export-xdpi="90"
   inkscape:export-ydpi="90"
   sodipodi:docname="splash.svg">
  <defs
     id="defs3423">
    <linearGradient
       id="linearGradient5638"
       osb:paint="solid">
      <stop
         style="stop-color:#ffffff;stop-opacity:1;"
         offset="0"
         id="stop5640" />
    </linearGradient>
    <linearGradient
       inkscape:collect="always"
       id="linearGradient4186">
      <stop
         style="stop-color:#ffffff;stop-opacity:1;"
         offset="0"
         id="stop4188" />
      <stop
         style="stop-color:#ffffff;stop-opacity:0;"
         offset="1"
         id="stop4190" />
    </linearGradient>
    <linearGradient
       inkscape:collect="always"
       xlink:href="#linearGradient4186"
       id="linearGradient4192"
       x1="-1.9285715"
       y1="483.79075"
       x2="644.78572"
       y2="483.79075"
       gradientUnits="userSpaceOnUse" />
    <linearGradient
       inkscape:collect="always"
       xlink:href="#linearGradient5638"
       id="linearGradient5642"
       x1="-1.9285715"
       y1="486.64789"
       x2="643.35713"
       y2="486.64789"
       gradientUnits="userSpaceOnUse" />
  </defs>
  <sodipodi:namedview
     id="base"
     pagecolor="#ffffff"
     bordercolor="#666666"
     borderopacity="1.0"
     inkscape:pageopacity="0.0"
     inkscape:pageshadow="2"
     inkscape:zoom="0.7"
     inkscape:cx="152.85714"
     inkscape:cy="687.17398"
     inkscape:document-units="px"
     inkscape:current-layer="layer1"
     showgrid="false"
     units="px"
     inkscape:window-width="1380"
     inkscape:window-height="1132"
     inkscape:window-x="132"
     inkscape:window-y="480"
     inkscape:window-maximized="0" />
  <metadata
     id="metadata3426">
    <rdf:RDF>
      <cc:Work
         rdf:about="">
        <dc:format>image/svg+xml</dc:format>
        <dc:type
           rdf:resource="http://purl.org/dc/dcmitype/StillImage" />
        <dc:title />
      </cc:Work>
    </rdf:RDF>
  </metadata>
  <g
     inkscape:label="Layer 1"
     inkscape:groupmode="layer"
     id="layer1"
     transform="translate(0,83.637839)">
    <rect
       style="opacity:1;fill:url(#linearGradient5642);fill-opacity:1;stroke:#ffffff;stroke-opacity:1"
       id="rect5630"
       width="644.28571"
       height="1142.8572"
       x="-1.4285715"
       y="-84.780701" />
    <g
       style="overflow:visible"
       id="g3414"
       transform="matrix(0.50367661,0,0,0.50367661,93.841143,127.63361)">
      <path
         id="path3340"
         d="m 417.734,3.822 0,162.54 c 0,34.266 -19.373,70.483 -77.792,70.483 -52.696,0 -78.109,-27.318 -78.109,-70.483 l 0,-162.54 47.954,0 0,159.378 c 0,28.246 12.078,39.38 29.543,39.38 20.933,0 30.486,-13.991 30.486,-39.38 l 0,-159.378 47.918,0 z"
         inkscape:connector-curvature="0"
         style="fill:#000000" />
      <path
         id="path3342"
         d="m 495.686,236.845 c -59.365,0 -70.46,-34.936 -67.939,-74.599 l 47.958,0 c 0,21.882 0.955,40.334 27.298,40.334 16.185,0 24.148,-10.501 24.148,-26.046 0,-41.267 -96.534,-43.811 -96.534,-112.079 C 430.618,28.577 447.75,0 506.166,0 c 46.659,0 69.855,20.966 66.665,68.91 l -46.641,0 c 0,-17.16 -2.871,-34.626 -22.246,-34.626 -15.538,0 -24.763,8.577 -24.763,24.46 0,43.479 96.521,39.666 96.521,111.752 0,59.369 -43.491,66.349 -80.016,66.349 z"
         inkscape:connector-curvature="0"
         style="fill:#000000" />
      <path
         id="path3344"
         d="m 818.033,236.845 c -59.393,0 -70.527,-34.936 -68.006,-74.599 l 47.959,0 c 0,21.882 0.955,40.334 27.298,40.334 16.214,0 24.137,-10.501 24.137,-26.046 0,-41.267 -96.516,-43.811 -96.516,-112.079 C 752.905,28.577 770.074,0 828.478,0 c 46.659,0 69.825,20.966 66.678,68.91 l -46.676,0 c 0,-17.16 -2.864,-34.626 -22.228,-34.626 -15.545,0 -24.763,8.577 -24.763,24.46 0,43.479 96.543,39.666 96.543,111.752 10e-4,59.369 -43.526,66.349 -79.999,66.349 z"
         inkscape:connector-curvature="0"
         style="fill:#000000" />
      <path
         id="path3346"
         d="m 665.27,147.606 28.232,0 0,50.615 -2.33,0.854 c -7.331,2.521 -15.9,4.431 -23.852,4.431 -27.284,0 -34.279,-12.694 -34.279,-84.445 0,-44.446 0,-84.777 29.849,-84.777 23.21,0 28.146,15.683 28.565,34.626 l 47.73,0 C 739.571,24.42 710.933,0 665.768,0 587.32,0 584.47,58.744 584.47,116.507 c 0,86.999 9.419,120.737 90.075,120.737 18.692,0 48.484,-4.203 62.254,-7.944 0.79,-0.249 2.272,-1.117 2.272,-2.336 0,-6.247 0,-113.952 0,-113.952 l -73.801,0 0,34.594 z"
         inkscape:connector-curvature="0"
         style="fill:#000000" />
      <path
         id="path3348"
         d="m 61.778,80.567 0.787,0.77 c 22.473,18.804 46.712,16.986 65.177,4.716 11.655,-7.761 64.282,-42.737 94.051,-62.541 l 0,-19.75 L 0,3.762 0,55.944 c 13.528,-2.355 35.299,-0.065 61.778,24.623 z"
         inkscape:connector-curvature="0"
         style="fill:#000000" />
      <path
         id="path3350"
         d="m 145.223,167.417 -26.197,-25.146 c -3.694,-3.334 -6.825,-5.778 -7.527,-6.327 -21.404,-15.038 -41.372,-10.458 -49.966,-7.258 -2.607,1.046 -5.094,2.471 -6.86,3.567 L 0,168.856 l 0,66.23 221.792,0 0,-47.68 c -4.864,3.093 -34.898,19.364 -76.569,-19.989 z"
         inkscape:connector-curvature="0"
         style="fill:#000000" />
      <path
         id="path3352"
         d="M 59.818,86.507 C 58.643,85.404 57.315,84.214 56.143,83.271 29.96,62.997 5.214,72.927 0,75.396 l 0,22.785 12.827,-8.626 c 0,0 19.776,-14.67 50.562,0.384 l -3.571,-3.432 z"
         inkscape:connector-curvature="0"
         style="fill:#000000" />
      <path
         id="path3354"
         d="m 90.444,115.961 c -1.153,-1.032 -2.308,-2.067 -3.483,-3.177 -23.224,-19.663 -45.714,-14.69 -55.007,-11.21 -2.639,1.051 -5.162,2.487 -6.945,3.579 l -2.521,1.717 0,0 L 0,121.911 0,145.39 41.846,117.222 c 0,0 19.53,-14.508 50.017,0.089 l -1.419,-1.35 z"
         inkscape:connector-curvature="0"
         style="fill:#000000" />
      <path
         id="path3356"
         d="m 221.824,140.56 c -8.729,5.87 -17.589,11.854 -21.122,14.234 -7.875,5.258 -26.146,18.352 -56.53,3.833 l 3.572,3.433 c 1.329,1.213 2.958,2.608 4.76,3.963 21.805,16.342 45.136,13.989 62.604,2.377 2.432,-1.594 4.654,-3.062 6.717,-4.444 l 0,-23.396 z"
         inkscape:connector-curvature="0"
         style="fill:#000000" />
      <path
         id="path3358"
         d="m 221.824,93.49 c -19.144,12.884 -44.994,30.281 -49.877,33.542 -7.875,5.278 -26.407,18.53 -56.142,4.331 l 3.447,3.314 c 0.385,0.37 0.787,0.727 1.172,1.083 l -0.036,0.027 0,0 0.036,-0.027 c 23.085,19.533 48.513,16.557 65.964,4.888 9.833,-6.541 23.817,-15.988 35.436,-23.897 l 0,-23.261 z"
         inkscape:connector-curvature="0"
         style="fill:#000000" />
      <path
         id="path3360"
         d="m 221.824,46.711 c -27.615,18.514 -72.927,48.897 -78.439,52.538 -7.96,5.329 -26.708,18.813 -56.072,4.794 l 3.57,3.447 c 2.12,1.894 4.969,4.308 8.015,6.286 20.32,13.007 41.602,10.691 58.91,-0.877 12.427,-8.321 43.053,-28.632 64.017,-42.562 l 0,-23.626 z"
         inkscape:connector-curvature="0"
         style="fill:#000000" />
      <path
         id="path3362"
         d="m 12.982,299.145 0,1.442 c 0,1.801 0.333,3.07 0.999,3.81 0.69,0.74 1.799,1.11 3.329,1.11 1.258,0 2.231,-0.309 2.922,-0.925 0.715,-0.616 1.073,-1.615 1.073,-2.996 0,-1.134 -0.419,-2.206 -1.257,-3.218 -0.839,-1.011 -3.058,-2.306 -6.658,-3.884 l -1.923,-0.813 c -2.762,-1.208 -4.969,-2.7 -6.621,-4.476 -1.652,-1.775 -2.478,-3.797 -2.478,-6.066 0,-3.551 1.344,-6.274 4.032,-8.174 2.712,-1.924 6.497,-2.885 11.355,-2.885 4.019,0 7.25,0.986 9.691,2.959 2.441,1.948 3.662,4.438 3.662,7.471 l 0,1.406 -10.617,0 c 0,-2.516 -0.296,-4.118 -0.888,-4.809 -0.592,-0.715 -1.504,-1.072 -2.737,-1.072 -1.356,0 -2.343,0.346 -2.959,1.035 -0.617,0.69 -0.925,1.727 -0.925,3.107 0,0.912 0.468,1.775 1.406,2.589 0.937,0.789 2.613,1.751 5.03,2.885 l 2.589,1.146 c 3.748,1.701 6.337,3.465 7.768,5.289 1.43,1.825 2.145,3.909 2.145,6.251 0,3.625 -1.356,6.51 -4.068,8.655 -2.713,2.121 -6.165,3.181 -10.356,3.181 -5.376,0 -9.247,-0.925 -11.614,-2.773 -2.343,-1.874 -3.514,-4.722 -3.514,-8.545 l 0,-1.701 10.614,0 z"
         inkscape:connector-curvature="0"
         style="fill:#000000" />
      <path
         id="path3364"
         d="m 57.22,297.37 10.615,0 c 0,4.907 -1.271,8.606 -3.81,11.097 -2.54,2.466 -6.375,3.698 -11.503,3.698 -5.598,0 -9.592,-1.454 -11.984,-4.364 -2.392,-2.909 -3.587,-7.435 -3.587,-13.574 l 0,-2.589 c 0,-7.743 1.27,-12.934 3.81,-15.572 2.539,-2.663 6.436,-3.994 11.688,-3.994 5.35,0 9.222,1.257 11.614,3.772 2.417,2.515 3.625,5.992 3.625,10.431 l -10.616,0 c 0,-2.959 -0.383,-4.957 -1.147,-5.992 -0.765,-1.036 -1.911,-1.554 -3.439,-1.554 -2.047,0 -3.379,0.925 -3.995,2.774 -0.617,1.85 -0.925,5.141 -0.925,9.875 0,5.895 0.333,9.729 0.999,11.504 0.666,1.751 1.973,2.626 3.921,2.626 3.155,-10e-4 4.734,-2.714 4.734,-8.138 z"
         inkscape:connector-curvature="0"
         style="fill:#000000" />
      <path
         id="path3366"
         d="m 76.638,256.757 10.616,0 0,8.434 -10.616,0 0,-8.434 z m 0,16.127 10.616,0 0,38.467 -10.616,0 0,-38.467 z"
         inkscape:connector-curvature="0"
         style="fill:#000000" />
      <path
         id="path3368"
         d="m 106.486,293.893 c 0,3.945 0.357,6.867 1.073,8.766 0.74,1.899 2.095,2.849 4.068,2.849 3.082,0 4.624,-2.317 4.624,-6.954 l 10.615,0 c 0,3.921 -1.307,7.176 -3.92,9.765 -2.589,2.565 -6.362,3.847 -11.318,3.847 -5.548,0 -9.567,-1.417 -12.058,-4.253 -2.466,-2.86 -3.699,-7.348 -3.699,-13.464 l 0,-2.811 c 0,-7.743 1.282,-12.934 3.847,-15.572 2.564,-2.663 6.51,-3.994 11.836,-3.994 5.252,0 9.173,1.381 11.762,4.143 2.589,2.736 3.884,7.299 3.884,13.685 l 0,2.331 c 0,0.912 0,1.467 0,1.664 l -20.714,0 z m 0,-5.955 10.098,0 c 0,-3.97 -0.432,-6.497 -1.295,-7.582 -0.863,-1.085 -2.096,-1.628 -3.699,-1.628 -1.899,0 -3.23,0.703 -3.995,2.108 -0.739,1.382 -1.109,3.749 -1.109,7.102 z"
         inkscape:connector-curvature="0"
         style="fill:#000000" />
      <path
         id="path3370"
         d="m 134.708,311.351 0,-38.467 10.615,0 0,3.921 c 1.973,-3.156 5.08,-4.734 9.321,-4.734 2.712,0 4.994,0.776 6.843,2.33 1.85,1.529 2.774,3.612 2.774,6.251 l 0,30.699 -10.615,0 0,-26.52 c 0,-4.069 -1.394,-6.104 -4.18,-6.104 -2.762,0 -4.143,1.948 -4.143,5.844 l 0,26.779 -10.615,0 z"
         inkscape:connector-curvature="0"
         style="fill:#000000" />
      <path
         id="path3372"
         d="m 191.89,297.37 10.615,0 c 0,4.907 -1.271,8.606 -3.81,11.097 -2.54,2.466 -6.375,3.698 -11.503,3.698 -5.598,0 -9.592,-1.454 -11.984,-4.364 -2.392,-2.909 -3.587,-7.435 -3.587,-13.574 l 0,-2.589 c 0,-7.743 1.27,-12.934 3.81,-15.572 2.539,-2.663 6.436,-3.994 11.688,-3.994 5.35,0 9.222,1.257 11.614,3.772 2.417,2.515 3.625,5.992 3.625,10.431 l -10.615,0 c 0,-2.959 -0.383,-4.957 -1.147,-5.992 -0.765,-1.036 -1.911,-1.554 -3.439,-1.554 -2.047,0 -3.379,0.925 -3.995,2.774 -0.617,1.85 -0.925,5.141 -0.925,9.875 0,5.895 0.333,9.729 0.999,11.504 0.666,1.751 1.973,2.626 3.921,2.626 3.155,-10e-4 4.733,-2.714 4.733,-8.138 z"
         inkscape:connector-curvature="0"
         style="fill:#000000" />
      <path
         id="path3374"
         d="m 220.111,293.893 c 0,3.945 0.357,6.867 1.073,8.766 0.74,1.899 2.095,2.849 4.068,2.849 3.082,0 4.624,-2.317 4.624,-6.954 l 10.615,0 c 0,3.921 -1.307,7.176 -3.92,9.765 -2.589,2.565 -6.362,3.847 -11.318,3.847 -5.548,0 -9.567,-1.417 -12.058,-4.253 -2.466,-2.86 -3.699,-7.348 -3.699,-13.464 l 0,-2.811 c 0,-7.743 1.282,-12.934 3.847,-15.572 2.564,-2.663 6.51,-3.994 11.836,-3.994 5.252,0 9.173,1.381 11.762,4.143 2.589,2.736 3.884,7.299 3.884,13.685 l 0,2.331 c 0,0.912 0,1.467 0,1.664 l -20.714,0 z m 0,-5.955 10.098,0 c 0,-3.97 -0.432,-6.497 -1.295,-7.582 -0.863,-1.085 -2.096,-1.628 -3.699,-1.628 -1.899,0 -3.23,0.703 -3.995,2.108 -0.739,1.382 -1.109,3.749 -1.109,7.102 z"
         inkscape:connector-curvature="0"
         style="fill:#000000" />
      <path
         id="path3376"
         d="m 260.872,272.884 4.734,0 0,-6.621 c 0,-3.427 0.863,-5.893 2.589,-7.397 1.75,-1.528 4.98,-2.293 9.69,-2.293 1.233,0 2.453,0.05 3.662,0.148 l 0,6.62 c -0.419,-0.074 -0.801,-0.11 -1.146,-0.11 -1.677,0 -2.799,0.419 -3.366,1.257 -0.543,0.839 -0.814,2.146 -0.814,3.921 l 0,4.476 4.734,0 0,6.657 -4.734,0 0,31.81 -10.615,0 0,-31.81 -4.734,0 0,-6.658 z"
         inkscape:connector-curvature="0"
         style="fill:#000000" />
      <path
         id="path3378"
         d="m 285.246,291.637 c 0,-7.743 1.294,-12.934 3.883,-15.572 2.589,-2.663 6.559,-3.994 11.91,-3.994 5.079,0 8.938,1.319 11.577,3.957 2.638,2.614 3.958,7.817 3.958,15.609 0,8.235 -1.294,13.722 -3.884,16.459 -2.589,2.713 -6.473,4.068 -11.651,4.068 -5.721,0 -9.79,-1.491 -12.206,-4.476 -2.392,-2.982 -3.587,-7.582 -3.587,-13.796 l 0,-2.255 z m 10.615,-0.26 c 0,5.82 0.333,9.63 0.999,11.43 0.69,1.8 2.083,2.7 4.18,2.7 1.923,0 3.218,-0.925 3.884,-2.774 0.69,-1.85 1.036,-5.634 1.036,-11.355 0,-5.252 -0.37,-8.667 -1.11,-10.245 -0.715,-1.603 -1.985,-2.404 -3.81,-2.404 -2.146,0 -3.551,0.9 -4.217,2.7 -0.642,1.775 -0.961,4.291 -0.961,7.546 l 0,2.402 z"
         inkscape:connector-curvature="0"
         style="fill:#000000" />
      <path
         id="path3380"
         d="m 324.083,311.351 0,-38.467 10.615,0 0,5.142 c 1.603,-3.97 4.759,-5.955 9.469,-5.955 l 0,9.579 c -0.518,-0.073 -0.974,-0.11 -1.368,-0.11 -2.614,0 -4.624,0.592 -6.029,1.775 -1.381,1.184 -2.071,3.428 -2.071,6.731 l 0,21.305 -10.616,0 z"
         inkscape:connector-curvature="0"
         style="fill:#000000" />
      <path
         id="path3382"
         d="m 365.804,283.907 c 0,-7.891 4.624,-11.836 13.871,-11.836 5.424,0 9.357,0.949 11.799,2.848 2.441,1.899 3.662,5.191 3.662,9.876 l 0,19.825 c 0,2.367 0.16,4.611 0.481,6.731 l -9.95,0 -0.481,-5.326 c -2.17,4.094 -5.487,6.14 -9.949,6.14 -6.831,0 -10.246,-4.08 -10.246,-12.242 0,-4.685 1.245,-8.063 3.736,-10.135 2.49,-2.071 7.015,-3.107 13.574,-3.107 l 2.219,0 0,-3.181 c 0,-1.8 -0.284,-3.156 -0.851,-4.068 -0.568,-0.937 -1.641,-1.405 -3.218,-1.405 -1.553,0 -2.614,0.48 -3.181,1.442 -0.568,0.938 -0.851,2.417 -0.851,4.438 l -10.615,0 z m 18.716,8.728 c -3.527,0 -5.894,0.444 -7.102,1.332 -1.208,0.863 -1.812,2.602 -1.812,5.215 0,4.217 1.332,6.325 3.995,6.325 3.279,0 4.919,-2.663 4.919,-7.989 l 0,-4.883 z"
         inkscape:connector-curvature="0"
         style="fill:#000000" />
      <path
         id="path3384"
         d="m 440.149,297.37 10.615,0 c 0,4.907 -1.271,8.606 -3.81,11.097 -2.54,2.466 -6.375,3.698 -11.503,3.698 -5.598,0 -9.592,-1.454 -11.984,-4.364 -2.392,-2.909 -3.587,-7.435 -3.587,-13.574 l 0,-2.589 c 0,-7.743 1.27,-12.934 3.81,-15.572 2.539,-2.663 6.436,-3.994 11.688,-3.994 5.35,0 9.222,1.257 11.614,3.772 2.417,2.515 3.625,5.992 3.625,10.431 l -10.615,0 c 0,-2.959 -0.383,-4.957 -1.147,-5.992 -0.765,-1.036 -1.911,-1.554 -3.439,-1.554 -2.047,0 -3.379,0.925 -3.995,2.774 -0.617,1.85 -0.925,5.141 -0.925,9.875 0,5.895 0.333,9.729 0.999,11.504 0.666,1.751 1.973,2.626 3.921,2.626 3.154,-10e-4 4.733,-2.714 4.733,-8.138 z"
         inkscape:connector-curvature="0"
         style="fill:#000000" />
      <path
         id="path3386"
         d="m 458.717,256.906 10.615,0 0,19.899 c 1.972,-3.156 5.079,-4.734 9.32,-4.734 2.712,0 4.993,0.776 6.843,2.33 1.85,1.529 2.774,3.612 2.774,6.251 l 0,30.699 -10.615,0 0,-26.52 c 0,-4.069 -1.394,-6.104 -4.18,-6.104 -2.763,0 -4.143,1.948 -4.143,5.844 l 0,26.779 -10.615,0 0,-54.444 z"
         inkscape:connector-curvature="0"
         style="fill:#000000" />
      <path
         id="path3388"
         d="m 496.259,283.907 c 0,-7.891 4.623,-11.836 13.87,-11.836 5.424,0 9.357,0.949 11.799,2.848 2.441,1.899 3.662,5.191 3.662,9.876 l 0,19.825 c 0,2.367 0.159,4.611 0.48,6.731 l -9.949,0 -0.481,-5.326 c -2.17,4.094 -5.486,6.14 -9.949,6.14 -6.831,0 -10.246,-4.08 -10.246,-12.242 0,-4.685 1.245,-8.063 3.736,-10.135 2.49,-2.071 7.015,-3.107 13.574,-3.107 l 2.219,0 0,-3.181 c 0,-1.8 -0.283,-3.156 -0.851,-4.068 -0.567,-0.937 -1.64,-1.405 -3.218,-1.405 -1.554,0 -2.614,0.48 -3.181,1.442 -0.567,0.938 -0.851,2.417 -0.851,4.438 l -10.614,0 z m 18.715,8.728 c -3.526,0 -5.894,0.444 -7.102,1.332 -1.208,0.863 -1.812,2.602 -1.812,5.215 0,4.217 1.331,6.325 3.994,6.325 3.279,0 4.919,-2.663 4.919,-7.989 l 0,-4.883 z"
         inkscape:connector-curvature="0"
         style="fill:#000000" />
      <path
         id="path3390"
         d="m 534.467,311.351 0,-38.467 10.615,0 0,3.921 c 1.972,-3.156 5.079,-4.734 9.32,-4.734 2.712,0 4.993,0.776 6.843,2.33 1.85,1.529 2.774,3.612 2.774,6.251 l 0,30.699 -10.615,0 0,-26.52 c 0,-4.069 -1.394,-6.104 -4.18,-6.104 -2.763,0 -4.143,1.948 -4.143,5.844 l 0,26.779 -10.614,0 z"
         inkscape:connector-curvature="0"
         style="fill:#000000" />
      <path
         id="path3392"
         d="m 571.972,314.976 10.615,0 c 0,3.525 1.405,5.289 4.217,5.289 2.736,0 4.105,-2.256 4.105,-6.769 l 0,-7.509 c -1.899,3.157 -4.674,4.734 -8.322,4.734 -3.945,0 -6.806,-1.208 -8.581,-3.625 -1.751,-2.44 -2.626,-6.731 -2.626,-12.871 l 0,-1.479 0,-3.846 c 0,-5.942 0.925,-10.232 2.773,-12.872 1.874,-2.638 4.55,-3.957 8.026,-3.957 4.266,0 7.336,1.775 9.21,5.326 l 0,-4.513 10.135,0 0,40.427 c 0,8.605 -5.043,12.909 -15.128,12.909 -9.616,0 -14.424,-3.749 -14.424,-11.244 z m 10.023,-19.788 c 0,3.205 0.345,5.486 1.035,6.842 0.69,1.356 1.874,2.035 3.551,2.035 1.455,0 2.54,-0.728 3.255,-2.183 0.715,-1.479 1.073,-4.377 1.073,-8.692 l 0,-2.478 c 0,-5.03 -0.395,-8.285 -1.184,-9.765 -0.79,-1.479 -1.838,-2.22 -3.145,-2.22 -1.578,0 -2.736,0.839 -3.477,2.516 -0.739,1.652 -1.109,3.957 -1.109,6.916 l 0,6.104 0,0.925 z"
         inkscape:connector-curvature="0"
         style="fill:#000000" />
      <path
         id="path3394"
         d="m 611.067,256.757 10.615,0 0,8.434 -10.615,0 0,-8.434 z m 0,16.127 10.615,0 0,38.467 -10.615,0 0,-38.467 z"
         inkscape:connector-curvature="0"
         style="fill:#000000" />
      <path
         id="path3396"
         d="m 631.263,311.351 0,-38.467 10.615,0 0,3.921 c 1.972,-3.156 5.079,-4.734 9.32,-4.734 2.712,0 4.993,0.776 6.843,2.33 1.85,1.529 2.774,3.612 2.774,6.251 l 0,30.699 -10.615,0 0,-26.52 c 0,-4.069 -1.394,-6.104 -4.18,-6.104 -2.763,0 -4.143,1.948 -4.143,5.844 l 0,26.779 -10.614,0 z"
         inkscape:connector-curvature="0"
         style="fill:#000000" />
      <path
         id="path3398"
         d="m 668.768,314.976 10.615,0 c 0,3.525 1.405,5.289 4.217,5.289 2.736,0 4.105,-2.256 4.105,-6.769 l 0,-7.509 c -1.899,3.157 -4.674,4.734 -8.322,4.734 -3.945,0 -6.806,-1.208 -8.581,-3.625 -1.751,-2.44 -2.626,-6.731 -2.626,-12.871 l 0,-1.479 0,-3.846 c 0,-5.942 0.925,-10.232 2.773,-12.872 1.874,-2.638 4.55,-3.957 8.026,-3.957 4.266,0 7.336,1.775 9.21,5.326 l 0,-4.513 10.135,0 0,40.427 c 0,8.605 -5.043,12.909 -15.128,12.909 -9.616,0 -14.424,-3.749 -14.424,-11.244 z m 10.023,-19.788 c 0,3.205 0.345,5.486 1.035,6.842 0.69,1.356 1.874,2.035 3.551,2.035 1.455,0 2.54,-0.728 3.255,-2.183 0.715,-1.479 1.073,-4.377 1.073,-8.692 l 0,-2.478 c 0,-5.03 -0.395,-8.285 -1.184,-9.765 -0.79,-1.479 -1.838,-2.22 -3.145,-2.22 -1.578,0 -2.736,0.839 -3.477,2.516 -0.739,1.652 -1.109,3.957 -1.109,6.916 l 0,6.104 0,0.925 z"
         inkscape:connector-curvature="0"
         style="fill:#000000" />
      <path
         id="path3400"
         d="m 720.364,272.884 10.615,0 5.142,29.146 7.323,-29.146 11.097,0 6.694,29.146 6.104,-29.146 10.282,0 -10.652,38.467 -11.281,0 -6.88,-26.446 -7.693,26.446 -11.281,0 -9.47,-38.467 z"
         inkscape:connector-curvature="0"
         style="fill:#000000" />
      <path
         id="path3402"
         d="m 781.801,291.637 c 0,-7.743 1.294,-12.934 3.884,-15.572 2.589,-2.663 6.559,-3.994 11.909,-3.994 5.08,0 8.938,1.319 11.577,3.957 2.639,2.614 3.958,7.817 3.958,15.609 0,8.235 -1.295,13.722 -3.884,16.459 -2.589,2.713 -6.473,4.068 -11.651,4.068 -5.721,0 -9.789,-1.491 -12.205,-4.476 -2.393,-2.982 -3.588,-7.582 -3.588,-13.796 l 0,-2.255 z m 10.615,-0.26 c 0,5.82 0.333,9.63 0.999,11.43 0.689,1.8 2.083,2.7 4.179,2.7 1.924,0 3.219,-0.925 3.884,-2.774 0.69,-1.85 1.036,-5.634 1.036,-11.355 0,-5.252 -0.37,-8.667 -1.109,-10.245 -0.716,-1.603 -1.985,-2.404 -3.811,-2.404 -2.145,0 -3.551,0.9 -4.216,2.7 -0.642,1.775 -0.962,4.291 -0.962,7.546 l 0,2.402 z"
         inkscape:connector-curvature="0"
         style="fill:#000000" />
      <path
         id="path3404"
         d="m 820.638,311.351 0,-38.467 10.615,0 0,5.142 c 1.603,-3.97 4.758,-5.955 9.469,-5.955 l 0,9.579 c -0.519,-0.073 -0.975,-0.11 -1.369,-0.11 -2.613,0 -4.623,0.592 -6.028,1.775 -1.382,1.184 -2.071,3.428 -2.071,6.731 l 0,21.305 -10.616,0 z"
         inkscape:connector-curvature="0"
         style="fill:#000000" />
      <path
         id="path3406"
         d="m 846.714,311.351 0,-54.445 10.615,0 0,54.445 -10.615,0 z"
         inkscape:connector-curvature="0"
         style="fill:#000000" />
      <path
         id="path3408"
         d="m 885.624,276.805 0,-19.899 10.615,0 0,54.445 -10.134,0 0,-4.513 c -1.899,3.551 -4.993,5.326 -9.284,5.326 -3.402,0 -6.042,-1.281 -7.915,-3.847 -1.874,-2.564 -2.812,-6.916 -2.812,-13.057 l 0,-3.624 0,-3.811 c 0.05,-5.153 0.888,-9.062 2.516,-11.725 1.651,-2.688 4.401,-4.031 8.248,-4.031 3.551,0.002 6.473,1.58 8.766,4.736 z m -8.914,13.833 c 0,5.672 0.271,9.567 0.814,11.688 0.542,2.121 1.775,3.182 3.698,3.182 2.194,0 3.575,-1.948 4.143,-5.845 0.172,-1.207 0.259,-4.105 0.259,-8.691 l 0,-3.44 c 0,-3.155 -0.369,-5.412 -1.109,-6.769 -0.716,-1.355 -1.812,-2.034 -3.292,-2.034 -1.627,0 -2.787,0.74 -3.477,2.22 -0.666,1.479 -1.012,3.612 -1.036,6.398 l 0,3.291 z"
         inkscape:connector-curvature="0"
         style="fill:#000000" />
    </g>
    <rect
       style="fill:#000000;fill-opacity:0"
       id="rect3513"
       width="631.42859"
       height="1137.1428"
       x="-5.7142859"
       y="-87.63784" />
    <rect
       style="fill:#666666;fill-opacity:0"
       id="rect3517"
       width="640"
       height="1151.4286"
       x="2.8571429"
       y="-90.49498" />
    <rect
       style="fill:#ffffff;fill-opacity:0;stroke:#ffffff"
       id="rect4323"
       width="648.57141"
       height="1145.7142"
       x="-5.7142859"
       y="-90.49498" />
    <text
       xml:space="preserve"
       style="font-style:normal;font-weight:normal;font-size:40px;line-height:125%;font-family:sans-serif;letter-spacing:0px;word-spacing:0px;fill:#000000;fill-opacity:1;stroke:none;stroke-width:1px;stroke-linecap:butt;stroke-linejoin:miter;stroke-opacity:1"
       x="319.6875"
       y="342.26224"
       id="text3451-2"
       sodipodi:linespacing="125%"><tspan
         sodipodi:role="line"
         id="tspan3453-1"
         x="319.6875"
         y="342.26224"
         style="font-style:normal;font-variant:normal;font-weight:normal;font-stretch:normal;font-family:serif;-inkscape-font-specification:serif;text-align:center;text-anchor:middle">iPlover</tspan><tspan
         sodipodi:role="line"
         x="319.6875"
         y="392.26224"
         id="tspan3455-8"
         style="font-style:normal;font-variant:normal;font-weight:normal;font-stretch:normal;font-family:serif;-inkscape-font-specification:serif;text-align:center;text-anchor:middle">Version 2.3.0</tspan><tspan
         sodipodi:role="line"
         x="319.6875"
         y="442.26224"
         id="tspan3457-9"
         style="font-style:normal;font-variant:normal;font-weight:normal;font-stretch:normal;font-family:serif;-inkscape-font-specification:serif;text-align:center;text-anchor:middle">Loading Application</tspan></text>
    <rect
       style="opacity:1;fill:#ffffff;fill-opacity:0;stroke:url(#linearGradient4192);stroke-opacity:1"
       id="rect3376"
       width="645.71429"
       height="1142.8572"
       x="-1.4285715"
       y="-87.63784" />
  </g>
</svg>
